<svg xmlns="http://www.w3.org/2000/svg" viewBox="0 0 400 300" width="100%" height="100%" style="background:#0a0a0f; font-family:monospace;">
  <defs>
    <radialGradient id="xrayGlow" cx="50%" cy="40%" r="60%">
      <stop offset="0%" stop-color="#2a3342" stop-opacity="0.8"/>
      <stop offset="60%" stop-color="#141824" stop-opacity="0.95"/>
      <stop offset="100%" stop-color="#07090e" stop-opacity="1"/>
    </radialGradient>
    <linearGradient id="boneGrad" x1="0" y1="1" x2="0" y2="0">
      <stop offset="0%" stop-color="#3b4455"/>
      <stop offset="40%" stop-color="#28303f"/>
      <stop offset="100%" stop-color="#181e2b"/>
    </linearGradient>
    <filter id="noiseFilter">
      <feTurbulence type="fractalNoise" baseFrequency="0.8" numOctaves="3" result="noise"/>
      <feColorMatrix type="matrix" values="1 0 0 0 0  0 1 0 0 0  0 0 1 0 0  0 0 0 0.15 0"/>
      <feBlend mode="overlay" in="SourceGraphic"/>
    </filter>
  </defs>

  <!-- Radiographic background exposure -->
  <rect width="400" height="300" fill="url(#xrayGlow)" filter="url(#noiseFilter)"/>

  <!-- Mandibular Alveolar Bone Trabeculae Structure -->
  <path d="M 10,160 Q 120,150 200,165 T 390,160 L 390,300 L 10,300 Z" fill="url(#boneGrad)" opacity="0.85"/>

  <!-- Trabecular bone pattern marks -->
  <g stroke="#4f5b72" stroke-width="0.5" opacity="0.4">
    <line x1="40" y1="180" x2="60" y2="185"/>
    <line x1="80" y1="190" x2="110" y2="195"/>
    <line x1="140" y1="210" x2="170" y2="205"/>
    <line x1="220" y1="220" x2="250" y2="215"/>
    <line x1="300" y1="190" x2="330" y2="185"/>
    <line x1="180" y1="250" x2="210" y2="255"/>
  </g>

  <!-- Inferior Alveolar Nerve Canal (Radiolucent Band) -->
  <path d="M 20,250 Q 180,265 380,245" fill="none" stroke="#0d111a" stroke-width="12" stroke-linecap="round" opacity="0.7"/>

  <!-- Tooth #18 (Adjacent 2nd Molar) -->
  <g opacity="0.75">
    <!-- Roots -->
    <path d="M 60,140 C 50,170 52,220 58,235 C 65,225 72,175 75,145 Z" fill="#4d5970"/>
    <path d="M 85,145 C 90,175 92,225 86,238 C 80,225 75,175 75,145 Z" fill="#4d5970"/>
    <!-- Crown & Pulp -->
    <path d="M 45,145 C 45,105 100,105 100,145 Z" fill="#62708c"/>
    <path d="M 68,125 Q 72,145 72,170" stroke="#161b26" stroke-width="3" fill="none"/>
  </g>

  <!-- Tooth #19: Precision Zirconia Crown (Radio-Opaque Pure White/Bright) -->
  <g id="tooth19">
    <!-- Mesial and Distal Roots with Lamina Dura -->
    <path d="M 160,150 C 145,185 140,230 152,245 C 160,230 170,190 175,155 Z" fill="#586680"/>
    <path d="M 200,155 C 210,190 215,232 205,246 C 195,232 185,190 175,155 Z" fill="#586680"/>
    
    <!-- Root canals -->
    <path d="M 153,165 Q 148,205 152,240" stroke="#121722" stroke-width="2" fill="none"/>
    <path d="M 201,165 Q 206,205 204,240" stroke="#121722" stroke-width="2" fill="none"/>

    <!-- Radio-opaque Full Monolithic Zirconia Crown (Dense White, sharp margins) -->
    <path d="M 135,155 C 135,95 225,95 225,155 C 220,158 140,158 135,155 Z" fill="#f8fafc" stroke="#e2e8f0" stroke-width="1.5"/>
    <!-- Cuspal Anatomy -->
    <path d="M 145,108 Q 160,120 180,105 Q 200,122 215,109" fill="none" stroke="#cbd5e1" stroke-width="1.5"/>
    
    <!-- Precision Margin Indicator (Subgingival Fit) -->
    <circle cx="136" cy="155" r="3" fill="none" stroke="#38bdf8" stroke-width="1"/>
    <circle cx="224" cy="155" r="3" fill="none" stroke="#38bdf8" stroke-width="1"/>
  </g>

  <!-- Tooth #20 (Premolar) -->
  <g opacity="0.8">
    <path d="M 270,150 C 275,185 272,230 268,240 C 262,228 262,185 264,150 Z" fill="#525f77"/>
    <path d="M 255,150 C 255,110 282,110 282,150 Z" fill="#667591"/>
    <line x1="268" y1="125" x2="268" y2="230" stroke="#161b26" stroke-width="2.5"/>
  </g>

  <!-- Radiographic Scale & Overlay Data -->
  <g fill="#94a3b8" font-size="9">
    <text x="15" y="25">TKR DENTAL CLINIC - BELLANDUR</text>
    <text x="15" y="40">PATIENT: RAHUL VERMA (TKR-P-1001)</text>
    <text x="15" y="55">IOPA RVG #19 POST-CEMENTATION | 70kVp 7mA</text>
    <text x="310" y="25">2026-09-08</text>
    <text x="310" y="40">DR. E. RAJALAKSHMI</text>
    <text x="310" y="55">CALIBRATION: 1:1</text>
  </g>

  <!-- Measurement scale rule -->
  <line x1="20" y1="280" x2="120" y2="280" stroke="#38bdf8" stroke-width="2"/>
  <line x1="20" y1="275" x2="20" y2="285" stroke="#38bdf8" stroke-width="1.5"/>
  <line x1="70" y1="277" x2="70" y2="283" stroke="#38bdf8" stroke-width="1"/>
  <line x1="120" y1="275" x2="120" y2="285" stroke="#38bdf8" stroke-width="1.5"/>
  <text x="50" y="275" fill="#38bdf8" font-size="8">10 mm Scale</text>
</svg>
